<svg width="1400" height="900" viewBox="0 0 1400 900" fill="none" xmlns="http://www.w3.org/2000/svg">
  <defs>
    <linearGradient id="bg" x1="120" y1="80" x2="1280" y2="820" gradientUnits="userSpaceOnUse">
      <stop stop-color="#F8FAFC"/>
      <stop offset="1" stop-color="#EAF4F2"/>
    </linearGradient>
    <linearGradient id="accent" x1="0" y1="0" x2="1" y2="1">
      <stop stop-color="#1F6F8B"/>
      <stop offset="1" stop-color="#164F63"/>
    </linearGradient>
    <filter id="shadow" x="0" y="0" width="1400" height="900" filterUnits="userSpaceOnUse" color-interpolation-filters="sRGB">
      <feDropShadow dx="0" dy="10" stdDeviation="12" flood-color="#0F172A" flood-opacity="0.08"/>
    </filter>
  </defs>

  <rect x="0" y="0" width="1400" height="900" rx="40" fill="url(#bg)"/>

  <circle cx="172" cy="130" r="90" fill="#7ED6C3" fill-opacity="0.18"/>
  <circle cx="1240" cy="770" r="120" fill="#1F6F8B" fill-opacity="0.12"/>

  <g filter="url(#shadow)">
    <rect x="86" y="120" width="390" height="650" rx="28" fill="white"/>
    <rect x="505" y="180" width="390" height="590" rx="28" fill="white"/>
    <rect x="924" y="100" width="390" height="670" rx="28" fill="white"/>
  </g>

  <rect x="114" y="152" width="140" height="30" rx="15" fill="#1F6F8B" fill-opacity="0.12"/>
  <text x="132" y="172" fill="#1F6F8B" font-family="Inter, Arial, sans-serif" font-size="14" font-weight="700">CLIENT BOOKS</text>

  <rect x="114" y="212" width="334" height="95" rx="16" fill="#F8FAFC"/>
  <circle cx="156" cy="259" r="18" fill="#7ED6C3"/>
  <rect x="186" y="244" width="144" height="11" rx="5.5" fill="#0F172A" fill-opacity="0.78"/>
  <rect x="186" y="264" width="220" height="9" rx="4.5" fill="#475569" fill-opacity="0.4"/>
  <rect x="348" y="242" width="80" height="30" rx="12" fill="#1F6F8B"/>
  <text x="366" y="262" fill="white" font-family="Inter, Arial, sans-serif" font-size="12" font-weight="700">10:30 AM</text>

  <rect x="114" y="326" width="334" height="95" rx="16" fill="#F8FAFC"/>
  <circle cx="156" cy="373" r="18" fill="#7ED6C3"/>
  <rect x="186" y="358" width="122" height="11" rx="5.5" fill="#0F172A" fill-opacity="0.78"/>
  <rect x="186" y="378" width="220" height="9" rx="4.5" fill="#475569" fill-opacity="0.4"/>
  <rect x="348" y="356" width="80" height="30" rx="12" fill="#1F6F8B"/>
  <text x="369" y="376" fill="white" font-family="Inter, Arial, sans-serif" font-size="12" font-weight="700">2:00 PM</text>

  <rect x="114" y="440" width="334" height="95" rx="16" fill="#F8FAFC"/>
  <circle cx="156" cy="487" r="18" fill="#7ED6C3"/>
  <rect x="186" y="472" width="168" height="11" rx="5.5" fill="#0F172A" fill-opacity="0.78"/>
  <rect x="186" y="492" width="220" height="9" rx="4.5" fill="#475569" fill-opacity="0.4"/>
  <rect x="348" y="470" width="80" height="30" rx="12" fill="#1F6F8B"/>
  <text x="366" y="490" fill="white" font-family="Inter, Arial, sans-serif" font-size="12" font-weight="700">4:15 PM</text>

  <rect x="114" y="568" width="334" height="168" rx="18" fill="#1F6F8B" fill-opacity="0.07"/>
  <text x="136" y="604" fill="#1F6F8B" font-family="Inter, Arial, sans-serif" font-size="15" font-weight="700">Auto confirmations</text>
  <text x="136" y="632" fill="#475569" font-family="Inter, Arial, sans-serif" font-size="13" font-weight="500">SMS and email reminders</text>
  <text x="136" y="658" fill="#475569" font-family="Inter, Arial, sans-serif" font-size="13" font-weight="500">Deposit required before slot lock</text>

  <rect x="532" y="214" width="140" height="30" rx="15" fill="#1F6F8B" fill-opacity="0.12"/>
  <text x="548" y="234" fill="#1F6F8B" font-family="Inter, Arial, sans-serif" font-size="14" font-weight="700">TEAM SCHEDULE</text>

  <rect x="532" y="266" width="336" height="464" rx="18" fill="#F8FAFC"/>
  <rect x="556" y="290" width="288" height="44" rx="12" fill="white"/>
  <text x="574" y="318" fill="#0F172A" font-family="Inter, Arial, sans-serif" font-size="14" font-weight="700">Friday, Mar 6</text>

  <rect x="556" y="354" width="136" height="108" rx="14" fill="white"/>
  <rect x="704" y="354" width="140" height="108" rx="14" fill="white"/>
  <rect x="556" y="474" width="288" height="72" rx="14" fill="white"/>
  <rect x="556" y="558" width="288" height="72" rx="14" fill="white"/>
  <rect x="556" y="642" width="288" height="72" rx="14" fill="white"/>

  <rect x="570" y="369" width="108" height="22" rx="11" fill="#1F6F8B"/>
  <text x="585" y="385" fill="white" font-family="Inter, Arial, sans-serif" font-size="11" font-weight="700">Stylist A</text>
  <rect x="718" y="369" width="112" height="22" rx="11" fill="#1F6F8B" fill-opacity="0.85"/>
  <text x="734" y="385" fill="white" font-family="Inter, Arial, sans-serif" font-size="11" font-weight="700">Therapist B</text>

  <rect x="570" y="498" width="70" height="22" rx="11" fill="#7ED6C3"/>
  <text x="583" y="514" fill="#0F172A" font-family="Inter, Arial, sans-serif" font-size="11" font-weight="700">11:00</text>
  <rect x="648" y="498" width="182" height="22" rx="11" fill="#E2E8F0"/>
  <text x="662" y="514" fill="#475569" font-family="Inter, Arial, sans-serif" font-size="11" font-weight="700">Full color + trim</text>

  <rect x="570" y="582" width="70" height="22" rx="11" fill="#7ED6C3"/>
  <text x="583" y="598" fill="#0F172A" font-family="Inter, Arial, sans-serif" font-size="11" font-weight="700">1:30</text>
  <rect x="648" y="582" width="182" height="22" rx="11" fill="#E2E8F0"/>
  <text x="664" y="598" fill="#475569" font-family="Inter, Arial, sans-serif" font-size="11" font-weight="700">Massage therapy</text>

  <rect x="570" y="666" width="70" height="22" rx="11" fill="#7ED6C3"/>
  <text x="583" y="682" fill="#0F172A" font-family="Inter, Arial, sans-serif" font-size="11" font-weight="700">3:45</text>
  <rect x="648" y="666" width="182" height="22" rx="11" fill="#E2E8F0"/>
  <text x="664" y="682" fill="#475569" font-family="Inter, Arial, sans-serif" font-size="11" font-weight="700">Brow and facial</text>

  <rect x="952" y="132" width="170" height="30" rx="15" fill="#1F6F8B" fill-opacity="0.12"/>
  <text x="970" y="152" fill="#1F6F8B" font-family="Inter, Arial, sans-serif" font-size="14" font-weight="700">BUSINESS RESULTS</text>

  <rect x="952" y="188" width="334" height="162" rx="18" fill="#F8FAFC"/>
  <rect x="980" y="220" width="84" height="92" rx="12" fill="url(#accent)"/>
  <rect x="1082" y="242" width="84" height="70" rx="12" fill="#1F6F8B" fill-opacity="0.86"/>
  <rect x="1184" y="202" width="74" height="110" rx="12" fill="#7ED6C3"/>
  <text x="980" y="332" fill="#475569" font-family="Inter, Arial, sans-serif" font-size="12" font-weight="700">Weekly booked</text>

  <rect x="952" y="370" width="334" height="182" rx="18" fill="#F8FAFC"/>
  <rect x="978" y="398" width="282" height="38" rx="12" fill="white"/>
  <text x="996" y="422" fill="#0F172A" font-family="Inter, Arial, sans-serif" font-size="14" font-weight="700">Revenue this week</text>
  <text x="1132" y="422" fill="#16A34A" font-family="Inter, Arial, sans-serif" font-size="14" font-weight="700">+12.4%</text>

  <rect x="978" y="448" width="282" height="76" rx="12" fill="white"/>
  <polyline points="994,502 1038,474 1082,486 1126,458 1170,470 1214,446 1246,454" stroke="#1F6F8B" stroke-width="4" fill="none" stroke-linecap="round" stroke-linejoin="round"/>
  <circle cx="1246" cy="454" r="6" fill="#1F6F8B"/>

  <rect x="952" y="572" width="334" height="170" rx="18" fill="#F8FAFC"/>
  <rect x="978" y="598" width="210" height="24" rx="12" fill="white"/>
  <text x="995" y="615" fill="#475569" font-family="Inter, Arial, sans-serif" font-size="12" font-weight="700">No-show rate</text>
  <text x="1140" y="615" fill="#0F172A" font-family="Inter, Arial, sans-serif" font-size="12" font-weight="700">2.1%</text>

  <rect x="978" y="632" width="282" height="24" rx="12" fill="white"/>
  <text x="995" y="649" fill="#475569" font-family="Inter, Arial, sans-serif" font-size="12" font-weight="700">Average booking value</text>
  <text x="1174" y="649" fill="#0F172A" font-family="Inter, Arial, sans-serif" font-size="12" font-weight="700">$84</text>

  <rect x="978" y="666" width="282" height="24" rx="12" fill="white"/>
  <text x="995" y="683" fill="#475569" font-family="Inter, Arial, sans-serif" font-size="12" font-weight="700">Deposit capture rate</text>
  <text x="1174" y="683" fill="#0F172A" font-family="Inter, Arial, sans-serif" font-size="12" font-weight="700">93%</text>

  <path d="M476 286C501 286 508 286 531 286" stroke="#1F6F8B" stroke-opacity="0.35" stroke-width="5" stroke-linecap="round"/>
  <path d="M895 286C918 286 926 286 949 286" stroke="#1F6F8B" stroke-opacity="0.35" stroke-width="5" stroke-linecap="round"/>
  <circle cx="503" cy="286" r="7" fill="#1F6F8B"/>
  <circle cx="922" cy="286" r="7" fill="#1F6F8B"/>
</svg>
